<svg id="Layer_1" data-name="Layer 1" xmlns="http://www.w3.org/2000/svg" xmlns:xlink="http://www.w3.org/1999/xlink" viewBox="0 0 360 640"><defs><style>.cls-1{fill:none;}.cls-2{fill:#4596c5;}.cls-3{fill:#184376;}.cls-4{opacity:0.55;isolation:isolate;fill:url(#SVGID_1_);}</style><pattern id="SVGID_1_" data-name="SVGID 1 " width="30" height="34" patternTransform="translate(47.5 16425.8)" patternUnits="userSpaceOnUse" viewBox="0 0 30 34"><rect class="cls-1" width="30" height="34"/><rect class="cls-1" width="30" height="34"/><rect class="cls-1" width="30" height="34"/><path class="cls-2" d="M21.5,34.6a17.91,17.91,0,0,0,4.6.4v.1a8.81,8.81,0,0,1-2.5,2.2,4.87,4.87,0,0,1-1.1.4.19.19,0,0,1-.3,0,5.36,5.36,0,0,1-1.5-1.5,2.07,2.07,0,0,1-.6-1,2.31,2.31,0,0,1,.2-2.4,4.92,4.92,0,0,1,3-2.1,7.14,7.14,0,0,1,2-.2,3.77,3.77,0,0,1,2.1.7A3.47,3.47,0,0,1,29,33.7a6.55,6.55,0,0,1-.3,2.8,7.24,7.24,0,0,1-2.3,3.6,14.92,14.92,0,0,1-2.9,2c-.8.5-1.7.9-2.5,1.3l-.2.1.1-.2.9-2.2a.37.37,0,0,1,.1-.3h-.3a7.34,7.34,0,0,1-3.2-.9,4,4,0,0,1-2.2-2.7,5,5,0,0,1-.2-2.1,8.87,8.87,0,0,1,.7-2.8,11.65,11.65,0,0,1,2.4-3.4,14.59,14.59,0,0,1,3.8-2.7,26.54,26.54,0,0,1,4.2-1.8l.2-.1c0,.2-2.3,5.3-2.6,5.7l-.7.1a8.6,8.6,0,0,0-3,.9,14.92,14.92,0,0,0-3,1.8c-.1.1-.1.1-.1.2a9,9,0,0,0,.7,2.7,4.54,4.54,0,0,0,3.7,2.8c.3,0,.5.1.8.1a2.77,2.77,0,0,0,.9-.1A8.93,8.93,0,0,0,26.9,37a4.35,4.35,0,0,0,.7-.6c.1,0,.1-.1.1-.2a6.79,6.79,0,0,0-.7-2A4,4,0,0,0,23.5,32H22.4c-.1,0-.2.1-.3.2a4.38,4.38,0,0,0-.7,1.9A1.34,1.34,0,0,1,21.5,34.6Z"/><path class="cls-2" d="M6.5,34.6a17.91,17.91,0,0,0,4.6.4v.1a8.81,8.81,0,0,1-2.5,2.2,4.87,4.87,0,0,1-1.1.4.19.19,0,0,1-.3,0,5.36,5.36,0,0,1-1.5-1.5,2.07,2.07,0,0,1-.6-1,2.31,2.31,0,0,1,.2-2.4,4.92,4.92,0,0,1,3-2.1,6.8,6.8,0,0,1,2-.2,3.77,3.77,0,0,1,2.1.7,3.5,3.5,0,0,1,1.7,2.5,6.55,6.55,0,0,1-.3,2.8,7.24,7.24,0,0,1-2.3,3.6,14.92,14.92,0,0,1-2.9,2c-.8.5-1.7.9-2.5,1.3l-.2.1.1-.2.8-2.2a.37.37,0,0,1,.1-.3H6.6a7.34,7.34,0,0,1-3.2-.9,4,4,0,0,1-2.2-2.7A5,5,0,0,1,1,35.1a8.87,8.87,0,0,1,.7-2.8,11.65,11.65,0,0,1,2.4-3.4,14.59,14.59,0,0,1,3.8-2.7A30,30,0,0,1,12,24.4l.2-.1c0,.2-2.3,5.3-2.6,5.7l-.6.1A8,8,0,0,0,6,31a14.92,14.92,0,0,0-3,1.8c-.1.1-.1.1-.1.2a9,9,0,0,0,.7,2.7,4.54,4.54,0,0,0,3.7,2.8c.3,0,.5.1.8.1a2.77,2.77,0,0,0,.9-.1A8.93,8.93,0,0,0,11.9,37a4.35,4.35,0,0,0,.7-.6c.1,0,.1-.1.1-.2a6.79,6.79,0,0,0-.7-2,3.89,3.89,0,0,0-3.4-2.1H7.5c-.1,0-.2.1-.3.2a4.38,4.38,0,0,0-.7,1.9Z"/><path class="cls-2" d="M29,17.6a17.91,17.91,0,0,0,4.6.4v.1A7.55,7.55,0,0,1,31,20.2a4.87,4.87,0,0,1-1.1.4h-.3a5.36,5.36,0,0,1-1.5-1.5,2.07,2.07,0,0,1-.6-1,2.31,2.31,0,0,1,.2-2.4,4.92,4.92,0,0,1,3-2.1,7.49,7.49,0,0,1,2.1-.2,3.77,3.77,0,0,1,2.1.7,3.47,3.47,0,0,1,1.6,2.5,6.55,6.55,0,0,1-.3,2.8A7.24,7.24,0,0,1,33.9,23,14.92,14.92,0,0,1,31,25c-.8.4-1.7.9-2.5,1.3l-.2.1.1-.2.8-2.2c0-.1,0-.1.1-.3H29a8,8,0,0,1-3.1-.9A4.42,4.42,0,0,1,23.7,20a5.55,5.55,0,0,1-.2-1.9,8.87,8.87,0,0,1,.7-2.8A10,10,0,0,1,26.6,12a14.59,14.59,0,0,1,3.8-2.7,30,30,0,0,1,4.1-1.8l.2-.1c0,.2-2.3,5.3-2.6,5.7l-.6.2a7.54,7.54,0,0,0-2.9.9,14.92,14.92,0,0,0-3,1.8c-.1.1-.1.1-.1.2a9,9,0,0,0,.7,2.7,4.54,4.54,0,0,0,3.7,2.8c.3,0,.5.1.8.1a2.77,2.77,0,0,0,.9-.1,8.93,8.93,0,0,0,2.9-1.5,4.35,4.35,0,0,0,.7-.6c.1,0,.1-.1.1-.2a8,8,0,0,0-.7-2,3.9,3.9,0,0,0-3.5-2.2H30c-.1,0-.2.1-.3.1a3.61,3.61,0,0,0-.6,2A.37.37,0,0,0,29,17.6Z"/><path class="cls-2" d="M14,17.6a17.91,17.91,0,0,0,4.6.4v.1A7.55,7.55,0,0,1,16,20.2a4.87,4.87,0,0,1-1.1.4h-.3a5.36,5.36,0,0,1-1.5-1.5,2.07,2.07,0,0,1-.6-1,2.31,2.31,0,0,1,.2-2.4,4.92,4.92,0,0,1,3-2.1,7.14,7.14,0,0,1,2-.2,3.77,3.77,0,0,1,2.1.7,3.47,3.47,0,0,1,1.6,2.5,6.55,6.55,0,0,1-.3,2.8A7.24,7.24,0,0,1,18.8,23a14.92,14.92,0,0,1-2.9,2c-.8.4-1.7.9-2.5,1.3l-.2.1.1-.2.9-2.2c0-.1,0-.1.1-.3H14a8,8,0,0,1-3.1-.9A4.42,4.42,0,0,1,8.7,20a5.55,5.55,0,0,1-.2-1.9,8.87,8.87,0,0,1,.7-2.8A10,10,0,0,1,11.6,12a14.59,14.59,0,0,1,3.8-2.7,30,30,0,0,1,4.1-1.8l.2-.1c0,.2-2.3,5.3-2.6,5.7l-.6.2a7.54,7.54,0,0,0-2.9.9,14.92,14.92,0,0,0-3,1.8c-.1.1-.1.1-.1.2a9,9,0,0,0,.7,2.7,4.54,4.54,0,0,0,3.7,2.8c.3,0,.5.1.8.1a2.77,2.77,0,0,0,.9-.1,8.93,8.93,0,0,0,2.9-1.5,4.35,4.35,0,0,0,.7-.6c.1,0,.1-.1.1-.2a8,8,0,0,0-.7-2,3.9,3.9,0,0,0-3.5-2.2H15c-.1,0-.2.1-.3.1a3.61,3.61,0,0,0-.6,2A.37.37,0,0,0,14,17.6Z"/><path class="cls-2" d="M-1,17.6a17.91,17.91,0,0,0,4.6.4v.1A7.55,7.55,0,0,1,1,20.2a4.87,4.87,0,0,1-1.1.4H-.4a5.36,5.36,0,0,1-1.5-1.5,2.07,2.07,0,0,1-.6-1,2.31,2.31,0,0,1,.2-2.4,4.92,4.92,0,0,1,3-2.1,7.14,7.14,0,0,1,2-.2,3.77,3.77,0,0,1,2.1.7,3.47,3.47,0,0,1,1.6,2.5,6.55,6.55,0,0,1-.3,2.8A7.24,7.24,0,0,1,3.8,23,14.92,14.92,0,0,1,.9,25c-.8.5-1.7.9-2.5,1.3l-.2.1h.2l.9-2.2a.37.37,0,0,1,.1-.3H-1A6.58,6.58,0,0,1-4.1,23a4.42,4.42,0,0,1-2.2-2.8,7.49,7.49,0,0,1-.2-2.1,8.87,8.87,0,0,1,.7-2.8A10,10,0,0,1-3.4,12,17.78,17.78,0,0,1,.4,9.2,30,30,0,0,1,4.5,7.4l.2-.1c0,.2-2.3,5.3-2.6,5.7l-.6.2a7.54,7.54,0,0,0-2.9.9,19.23,19.23,0,0,0-3.1,1.8c-.1.1-.1.1-.1.2a9,9,0,0,0,.7,2.7A4.54,4.54,0,0,0-.2,21.6c.3,0,.5.1.8.1a2.77,2.77,0,0,0,.9-.1,8.93,8.93,0,0,0,2.9-1.5,4.35,4.35,0,0,0,.7-.6c.1,0,.1-.1.1-.2a8,8,0,0,0-.7-2A4,4,0,0,0,1,15.1H-.1c-.1,0-.2.1-.3.1a3.61,3.61,0,0,0-.6,2Z"/><path class="cls-2" d="M21.5.6a17.91,17.91,0,0,0,4.6.4v.1a7.21,7.21,0,0,1-2.5,2.1,4.87,4.87,0,0,1-1.1.4.19.19,0,0,1-.3,0,5.36,5.36,0,0,1-1.5-1.5,2.07,2.07,0,0,1-.6-1,2.31,2.31,0,0,1,.2-2.4,4.92,4.92,0,0,1,3-2.1,7.14,7.14,0,0,1,2-.2,3.77,3.77,0,0,1,2.1.7A3.47,3.47,0,0,1,29-.4a6.55,6.55,0,0,1-.3,2.8A7.24,7.24,0,0,1,26.4,6a14.92,14.92,0,0,1-2.9,2c-.8.5-1.7.9-2.5,1.3l-.2.1.1-.2L21.8,7c0-.1,0-.1.1-.3h-.3a7.34,7.34,0,0,1-3.2-.9,3.64,3.64,0,0,1-2.2-2.6A5,5,0,0,1,16,1.1a8.87,8.87,0,0,1,.7-2.8,11.65,11.65,0,0,1,2.4-3.4,14.59,14.59,0,0,1,3.8-2.7,26.54,26.54,0,0,1,4.2-1.8h.1c0,.2-2.3,5.3-2.6,5.7l-.6.1a8,8,0,0,0-3,.9,14.92,14.92,0,0,0-3,1.8c0,.1-.1.1-.1.2a9,9,0,0,0,.7,2.7,4.54,4.54,0,0,0,3.7,2.8c.3,0,.5.1.8.1a2.77,2.77,0,0,0,.9-.1,8.93,8.93,0,0,0,2.9-1.5,4.35,4.35,0,0,0,.7-.6c.1,0,.1-.1.1-.2A6.19,6.19,0,0,0,27,.4a4,4,0,0,0-3.5-2.2H22.4c-.1,0-.2.1-.3.2a4.79,4.79,0,0,0-.7,2C21.5.4,21.5.5,21.5.6Z"/><path class="cls-2" d="M6.5.6a17.91,17.91,0,0,0,4.6.4v.1A7.21,7.21,0,0,1,8.6,3.2a4.87,4.87,0,0,1-1.1.4.19.19,0,0,1-.3,0A5.36,5.36,0,0,1,5.7,2.1,10.91,10.91,0,0,1,5.1,1a2.31,2.31,0,0,1,.2-2.4,4.92,4.92,0,0,1,3-2.1,6.8,6.8,0,0,1,2-.2,3.77,3.77,0,0,1,2.1.7A3.47,3.47,0,0,1,14-.4a6.55,6.55,0,0,1-.3,2.8A7.24,7.24,0,0,1,11.4,6,14.92,14.92,0,0,1,8.5,8c-.8.5-1.7.9-2.5,1.3l-.2.1.1-.2L6.7,7c0-.1,0-.1.1-.3H6.5a7.34,7.34,0,0,1-3.2-.9A3.75,3.75,0,0,1,1.2,3.2,5,5,0,0,1,1,1.1a8.87,8.87,0,0,1,.7-2.8A11.65,11.65,0,0,1,4.1-5.1,17.78,17.78,0,0,1,7.9-7.9,30,30,0,0,1,12-9.7l.2.1c0,.2-2.3,5.3-2.6,5.7L9-3.8a8,8,0,0,0-3,.9A14.92,14.92,0,0,0,3-1.1c0,.1-.1.1-.1.2a9,9,0,0,0,.7,2.7A4.54,4.54,0,0,0,7.3,4.6c.3,0,.5.1.8.1A2.77,2.77,0,0,0,9,4.6a8.93,8.93,0,0,0,2.9-1.5,4.35,4.35,0,0,0,.7-.6c.1,0,.1-.1.1-.2a8,8,0,0,0-.7-2A4,4,0,0,0,8.5-1.9H7.4c-.1,0-.2.1-.3.2a4.79,4.79,0,0,0-.7,2A.37.37,0,0,1,6.5.6Z"/></pattern></defs><title>screen</title><g id="Layer_1-2" data-name="Layer 1"><polyline class="cls-3" points="249 0 360 0 360 640 0 640 0 0 111 0"/><polyline class="cls-4" points="249 0 360 0 360 640 0 640 0 0 111 0"/></g></svg>